<?xml version="1.0" encoding="UTF-8" standalone="no"?>
<!DOCTYPE svg PUBLIC "-//W3C//DTD SVG 1.1//EN"
 "http://www.w3.org/Graphics/SVG/1.1/DTD/svg11.dtd">
<!-- Generated by graphviz version 10.0.1 (20240210.2158)
 -->
<!-- Title: models_diagram Pages: 1 -->
<svg width="1140pt" height="326pt"
 viewBox="0.00 0.00 1140.00 325.50" xmlns="http://www.w3.org/2000/svg" xmlns:xlink="http://www.w3.org/1999/xlink">
<g id="graph0" class="graph" transform="scale(1 1) rotate(0) translate(4 321.5)">
<title>models_diagram</title>
<polygon fill="none" stroke="none" points="-4,4 -4,-321.5 1136,-321.5 1136,4 -4,4"/>
<!-- Admin -->
<g id="node1" class="node">
<title>Admin</title>
<path fill="none" stroke="black" d="M12,-152.5C12,-152.5 316,-152.5 316,-152.5 322,-152.5 328,-158.5 328,-164.5 328,-164.5 328,-305 328,-305 328,-311 322,-317 316,-317 316,-317 12,-317 12,-317 6,-317 0,-311 0,-305 0,-305 0,-164.5 0,-164.5 0,-158.5 6,-152.5 12,-152.5"/>
<text text-anchor="middle" x="164" y="-299.7" font-family="Times,serif" font-size="14.00">Admin</text>
<polyline fill="none" stroke="black" points="0,-292.5 328,-292.5"/>
<text text-anchor="start" x="8" y="-275.2" font-family="Times,serif" font-size="14.00">updated_at :timestamp(6) without time zone</text>
<text text-anchor="start" x="8" y="-258.7" font-family="Times,serif" font-size="14.00">email :character varying</text>
<text text-anchor="start" x="8" y="-242.2" font-family="Times,serif" font-size="14.00">encrypted_password :character varying</text>
<text text-anchor="start" x="8" y="-225.7" font-family="Times,serif" font-size="14.00">reset_password_token :character varying</text>
<text text-anchor="start" x="8" y="-209.2" font-family="Times,serif" font-size="14.00">reset_password_sent_at :timestamp(6) without time zone</text>
<text text-anchor="start" x="8" y="-192.7" font-family="Times,serif" font-size="14.00">remember_created_at :timestamp(6) without time zone</text>
<text text-anchor="start" x="8" y="-176.2" font-family="Times,serif" font-size="14.00">created_at :timestamp(6) without time zone</text>
<text text-anchor="start" x="8" y="-159.7" font-family="Times,serif" font-size="14.00">id :uuid</text>
</g>
<!-- ApplicationRecord -->
<g id="node2" class="node">
<title>ApplicationRecord</title>
<ellipse fill="none" stroke="black" cx="427" cy="-234.75" rx="81.04" ry="18"/>
<text text-anchor="middle" x="427" y="-229.7" font-family="Times,serif" font-size="14.00">ApplicationRecord</text>
</g>
<!-- Article -->
<g id="node3" class="node">
<title>Article</title>
<path fill="none" stroke="black" d="M538.5,-160.75C538.5,-160.75 773.5,-160.75 773.5,-160.75 779.5,-160.75 785.5,-166.75 785.5,-172.75 785.5,-172.75 785.5,-296.75 785.5,-296.75 785.5,-302.75 779.5,-308.75 773.5,-308.75 773.5,-308.75 538.5,-308.75 538.5,-308.75 532.5,-308.75 526.5,-302.75 526.5,-296.75 526.5,-296.75 526.5,-172.75 526.5,-172.75 526.5,-166.75 532.5,-160.75 538.5,-160.75"/>
<text text-anchor="middle" x="656" y="-291.45" font-family="Times,serif" font-size="14.00">Article</text>
<polyline fill="none" stroke="black" points="526.5,-284.25 785.5,-284.25"/>
<text text-anchor="start" x="534.5" y="-266.95" font-family="Times,serif" font-size="14.00">id :uuid</text>
<text text-anchor="start" x="534.5" y="-250.45" font-family="Times,serif" font-size="14.00">title :character varying</text>
<text text-anchor="start" x="534.5" y="-233.95" font-family="Times,serif" font-size="14.00">body :text</text>
<text text-anchor="start" x="534.5" y="-217.45" font-family="Times,serif" font-size="14.00">created_at :timestamp(6) without time zone</text>
<text text-anchor="start" x="534.5" y="-200.95" font-family="Times,serif" font-size="14.00">updated_at :timestamp(6) without time zone</text>
<text text-anchor="start" x="534.5" y="-184.45" font-family="Times,serif" font-size="14.00">slug :character varying</text>
<text text-anchor="start" x="534.5" y="-167.95" font-family="Times,serif" font-size="14.00">category_id :uuid</text>
</g>
<!-- Category -->
<g id="node4" class="node">
<title>Category</title>
<path fill="none" stroke="black" d="M278.5,-0.5C278.5,-0.5 513.5,-0.5 513.5,-0.5 519.5,-0.5 525.5,-6.5 525.5,-12.5 525.5,-12.5 525.5,-87 525.5,-87 525.5,-93 519.5,-99 513.5,-99 513.5,-99 278.5,-99 278.5,-99 272.5,-99 266.5,-93 266.5,-87 266.5,-87 266.5,-12.5 266.5,-12.5 266.5,-6.5 272.5,-0.5 278.5,-0.5"/>
<text text-anchor="middle" x="396" y="-81.7" font-family="Times,serif" font-size="14.00">Category</text>
<polyline fill="none" stroke="black" points="266.5,-74.5 525.5,-74.5"/>
<text text-anchor="start" x="274.5" y="-57.2" font-family="Times,serif" font-size="14.00">id :uuid</text>
<text text-anchor="start" x="274.5" y="-40.7" font-family="Times,serif" font-size="14.00">name :character varying</text>
<text text-anchor="start" x="274.5" y="-24.2" font-family="Times,serif" font-size="14.00">created_at :timestamp(6) without time zone</text>
<text text-anchor="start" x="274.5" y="-7.7" font-family="Times,serif" font-size="14.00">updated_at :timestamp(6) without time zone</text>
</g>
<!-- Article&#45;&gt;Category -->
<g id="edge1" class="edge">
<title>Article&#45;&gt;Category</title>
<path fill="none" stroke="#0d8f56" d="M543.52,-154.58C519.91,-137.96 495.51,-120.79 473.51,-105.31"/>
<polygon fill="#0d8f56" stroke="#0d8f56" points="543.3,-154.42 548.88,-163.86 547.66,-157.49 551.2,-159.99 551.2,-159.99 551.2,-159.99 547.66,-157.49 554.06,-156.5 543.3,-154.42"/>
<polygon fill="#0d8f56" stroke="#0d8f56" points="473.66,-105.41 468.07,-95.98 469.3,-102.34 465.76,-99.85 465.76,-99.85 465.76,-99.85 469.3,-102.34 462.89,-103.34 473.66,-105.41"/>
</g>
<!-- ActiveStorage::Attachment -->
<g id="node6" class="node">
<title>ActiveStorage::Attachment</title>
<ellipse fill="none" stroke="black" cx="656" cy="-49.75" rx="112.26" ry="18"/>
<text text-anchor="middle" x="656" y="-44.7" font-family="Times,serif" font-size="14.00">ActiveStorage::Attachment</text>
</g>
<!-- Article&#45;&gt;ActiveStorage::Attachment -->
<g id="edge2" class="edge">
<title>Article&#45;&gt;ActiveStorage::Attachment</title>
<path fill="none" stroke="#3699e5" d="M656,-149.98C656,-124.22 656,-97.63 656,-78.47"/>
<polygon fill="#3699e5" stroke="#3699e5" points="656,-150.04 651.5,-160.04 656,-155.37 656,-159.7 656,-159.7 656,-159.7 656,-155.37 660.5,-160.04 656,-150.04"/>
<polygon fill="#3699e5" stroke="#3699e5" points="656,-78.44 660.5,-68.44 656,-73.11 656,-68.77 656,-68.77 656,-68.77 656,-73.11 651.5,-68.44 656,-78.44"/>
<text text-anchor="middle" x="724.62" y="-120.7" font-family="Times,serif" font-size="14.00">cover_image_attachment</text>
</g>
<!-- ActiveStorage::Blob -->
<g id="node7" class="node">
<title>ActiveStorage::Blob</title>
<ellipse fill="none" stroke="black" cx="873" cy="-49.75" rx="86.67" ry="18"/>
<text text-anchor="middle" x="873" y="-44.7" font-family="Times,serif" font-size="14.00">ActiveStorage::Blob</text>
</g>
<!-- Article&#45;&gt;ActiveStorage::Blob -->
<g id="edge3" class="edge">
<title>Article&#45;&gt;ActiveStorage::Blob</title>
<path fill="none" stroke="#1d77c3" d="M772.88,-154.09C781.21,-147.5 789.33,-140.77 797,-134 817.42,-115.97 838.11,-92.93 852.73,-75.66"/>
<polygon fill="#1d77c3" stroke="#1d77c3" points="772.99,-154.01 762.34,-156.61 768.79,-157.29 765.37,-159.95 765.37,-159.95 765.37,-159.95 768.79,-157.29 767.88,-163.71 772.99,-154.01"/>
<polygon fill="#1d77c3" stroke="#1d77c3" points="852.77,-75.62 862.63,-70.84 856.19,-71.53 858.97,-68.21 858.97,-68.21 858.97,-68.21 856.19,-71.53 855.73,-65.06 852.77,-75.62"/>
<text text-anchor="middle" x="862.62" y="-120.7" font-family="Times,serif" font-size="14.00">cover_image_blob</text>
</g>
<!-- User -->
<g id="node5" class="node">
<title>User</title>
<path fill="none" stroke="black" d="M816,-152.5C816,-152.5 1120,-152.5 1120,-152.5 1126,-152.5 1132,-158.5 1132,-164.5 1132,-164.5 1132,-305 1132,-305 1132,-311 1126,-317 1120,-317 1120,-317 816,-317 816,-317 810,-317 804,-311 804,-305 804,-305 804,-164.5 804,-164.5 804,-158.5 810,-152.5 816,-152.5"/>
<text text-anchor="middle" x="968" y="-299.7" font-family="Times,serif" font-size="14.00">User</text>
<polyline fill="none" stroke="black" points="804,-292.5 1132,-292.5"/>
<text text-anchor="start" x="812" y="-275.2" font-family="Times,serif" font-size="14.00">updated_at :timestamp(6) without time zone</text>
<text text-anchor="start" x="812" y="-258.7" font-family="Times,serif" font-size="14.00">email :character varying</text>
<text text-anchor="start" x="812" y="-242.2" font-family="Times,serif" font-size="14.00">encrypted_password :character varying</text>
<text text-anchor="start" x="812" y="-225.7" font-family="Times,serif" font-size="14.00">reset_password_token :character varying</text>
<text text-anchor="start" x="812" y="-209.2" font-family="Times,serif" font-size="14.00">reset_password_sent_at :timestamp(6) without time zone</text>
<text text-anchor="start" x="812" y="-192.7" font-family="Times,serif" font-size="14.00">remember_created_at :timestamp(6) without time zone</text>
<text text-anchor="start" x="812" y="-176.2" font-family="Times,serif" font-size="14.00">created_at :timestamp(6) without time zone</text>
<text text-anchor="start" x="812" y="-159.7" font-family="Times,serif" font-size="14.00">id :uuid</text>
</g>
</g>
</svg>
