<?xml version="1.0" encoding="UTF-8" standalone="no"?>
<!DOCTYPE svg PUBLIC "-//W3C//DTD SVG 1.1//EN"
 "http://www.w3.org/Graphics/SVG/1.1/DTD/svg11.dtd">
<!-- Generated by graphviz version 10.0.1 (20240210.2158)
 -->
<!-- Title: models_diagram Pages: 1 -->
<svg width="1243pt" height="644pt"
 viewBox="0.00 0.00 1243.00 643.50" xmlns="http://www.w3.org/2000/svg" xmlns:xlink="http://www.w3.org/1999/xlink">
<g id="graph0" class="graph" transform="scale(1 1) rotate(0) translate(4 639.5)">
<title>models_diagram</title>
<polygon fill="none" stroke="none" points="-4,4 -4,-639.5 1239,-639.5 1239,4 -4,4"/>
<!-- Admin -->
<g id="node1" class="node">
<title>Admin</title>
<path fill="none" stroke="black" d="M12,-454C12,-454 316,-454 316,-454 322,-454 328,-460 328,-466 328,-466 328,-623 328,-623 328,-629 322,-635 316,-635 316,-635 12,-635 12,-635 6,-635 0,-629 0,-623 0,-623 0,-466 0,-466 0,-460 6,-454 12,-454"/>
<text text-anchor="middle" x="164" y="-617.7" font-family="Times,serif" font-size="14.00">Admin</text>
<polyline fill="none" stroke="black" points="0,-610.5 328,-610.5"/>
<text text-anchor="start" x="8" y="-593.2" font-family="Times,serif" font-size="14.00">name :character varying</text>
<text text-anchor="start" x="8" y="-576.7" font-family="Times,serif" font-size="14.00">email :character varying</text>
<text text-anchor="start" x="8" y="-560.2" font-family="Times,serif" font-size="14.00">encrypted_password :character varying</text>
<text text-anchor="start" x="8" y="-543.7" font-family="Times,serif" font-size="14.00">reset_password_token :character varying</text>
<text text-anchor="start" x="8" y="-527.2" font-family="Times,serif" font-size="14.00">reset_password_sent_at :timestamp(6) without time zone</text>
<text text-anchor="start" x="8" y="-510.7" font-family="Times,serif" font-size="14.00">remember_created_at :timestamp(6) without time zone</text>
<text text-anchor="start" x="8" y="-494.2" font-family="Times,serif" font-size="14.00">created_at :timestamp(6) without time zone</text>
<text text-anchor="start" x="8" y="-477.7" font-family="Times,serif" font-size="14.00">updated_at :timestamp(6) without time zone</text>
<text text-anchor="start" x="8" y="-461.2" font-family="Times,serif" font-size="14.00">id :uuid</text>
</g>
<!-- ApplicationRecord -->
<g id="node2" class="node">
<title>ApplicationRecord</title>
<ellipse fill="none" stroke="black" cx="427" cy="-544.5" rx="81.04" ry="18"/>
<text text-anchor="middle" x="427" y="-539.45" font-family="Times,serif" font-size="14.00">ApplicationRecord</text>
</g>
<!-- Article -->
<g id="node3" class="node">
<title>Article</title>
<path fill="none" stroke="black" d="M538.5,-462.25C538.5,-462.25 773.5,-462.25 773.5,-462.25 779.5,-462.25 785.5,-468.25 785.5,-474.25 785.5,-474.25 785.5,-614.75 785.5,-614.75 785.5,-620.75 779.5,-626.75 773.5,-626.75 773.5,-626.75 538.5,-626.75 538.5,-626.75 532.5,-626.75 526.5,-620.75 526.5,-614.75 526.5,-614.75 526.5,-474.25 526.5,-474.25 526.5,-468.25 532.5,-462.25 538.5,-462.25"/>
<text text-anchor="middle" x="656" y="-609.45" font-family="Times,serif" font-size="14.00">Article</text>
<polyline fill="none" stroke="black" points="526.5,-602.25 785.5,-602.25"/>
<text text-anchor="start" x="534.5" y="-584.95" font-family="Times,serif" font-size="14.00">author_id :uuid</text>
<text text-anchor="start" x="534.5" y="-568.45" font-family="Times,serif" font-size="14.00">title :character varying</text>
<text text-anchor="start" x="534.5" y="-551.95" font-family="Times,serif" font-size="14.00">body :text</text>
<text text-anchor="start" x="534.5" y="-535.45" font-family="Times,serif" font-size="14.00">created_at :timestamp(6) without time zone</text>
<text text-anchor="start" x="534.5" y="-518.95" font-family="Times,serif" font-size="14.00">updated_at :timestamp(6) without time zone</text>
<text text-anchor="start" x="534.5" y="-502.45" font-family="Times,serif" font-size="14.00">slug :character varying</text>
<text text-anchor="start" x="534.5" y="-485.95" font-family="Times,serif" font-size="14.00">category_id :uuid</text>
<text text-anchor="start" x="534.5" y="-469.45" font-family="Times,serif" font-size="14.00">id :uuid</text>
</g>
<!-- Author -->
<g id="node4" class="node">
<title>Author</title>
<path fill="none" stroke="black" d="M538.5,-218.5C538.5,-218.5 773.5,-218.5 773.5,-218.5 779.5,-218.5 785.5,-224.5 785.5,-230.5 785.5,-230.5 785.5,-404 785.5,-404 785.5,-410 779.5,-416 773.5,-416 773.5,-416 538.5,-416 538.5,-416 532.5,-416 526.5,-410 526.5,-404 526.5,-404 526.5,-230.5 526.5,-230.5 526.5,-224.5 532.5,-218.5 538.5,-218.5"/>
<text text-anchor="middle" x="656" y="-398.7" font-family="Times,serif" font-size="14.00">Author</text>
<polyline fill="none" stroke="black" points="526.5,-391.5 785.5,-391.5"/>
<text text-anchor="start" x="534.5" y="-374.2" font-family="Times,serif" font-size="14.00">updated_at :timestamp(6) without time zone</text>
<text text-anchor="start" x="534.5" y="-357.7" font-family="Times,serif" font-size="14.00">name :character varying</text>
<text text-anchor="start" x="534.5" y="-341.2" font-family="Times,serif" font-size="14.00">description :text</text>
<text text-anchor="start" x="534.5" y="-324.7" font-family="Times,serif" font-size="14.00">facebook_profile_url :character varying</text>
<text text-anchor="start" x="534.5" y="-308.2" font-family="Times,serif" font-size="14.00">instagram_profile_url :character varying</text>
<text text-anchor="start" x="534.5" y="-291.7" font-family="Times,serif" font-size="14.00">twitter_profile_url :character varying</text>
<text text-anchor="start" x="534.5" y="-275.2" font-family="Times,serif" font-size="14.00">linkedin_profile_url :character varying</text>
<text text-anchor="start" x="534.5" y="-258.7" font-family="Times,serif" font-size="14.00">youtube_profile_url :character varying</text>
<text text-anchor="start" x="534.5" y="-242.2" font-family="Times,serif" font-size="14.00">created_at :timestamp(6) without time zone</text>
<text text-anchor="start" x="534.5" y="-225.7" font-family="Times,serif" font-size="14.00">id :uuid</text>
</g>
<!-- Article&#45;&gt;Author -->
<g id="edge2" class="edge">
<title>Article&#45;&gt;Author</title>
<path fill="none" stroke="#4af89e" d="M656,-451.74C656,-443.48 656,-435.07 656,-426.69"/>
<polygon fill="#4af89e" stroke="#4af89e" points="656,-451.53 651.5,-461.53 656,-456.86 656,-461.19 656,-461.19 656,-461.19 656,-456.86 660.5,-461.53 656,-451.53"/>
<polygon fill="#4af89e" stroke="#4af89e" points="656,-426.82 660.5,-416.82 656,-421.49 656,-417.16 656,-417.16 656,-417.16 656,-421.49 651.5,-416.82 656,-426.82"/>
</g>
<!-- Category -->
<g id="node5" class="node">
<title>Category</title>
<path fill="none" stroke="black" d="M261.5,-259.75C261.5,-259.75 496.5,-259.75 496.5,-259.75 502.5,-259.75 508.5,-265.75 508.5,-271.75 508.5,-271.75 508.5,-362.75 508.5,-362.75 508.5,-368.75 502.5,-374.75 496.5,-374.75 496.5,-374.75 261.5,-374.75 261.5,-374.75 255.5,-374.75 249.5,-368.75 249.5,-362.75 249.5,-362.75 249.5,-271.75 249.5,-271.75 249.5,-265.75 255.5,-259.75 261.5,-259.75"/>
<text text-anchor="middle" x="379" y="-357.45" font-family="Times,serif" font-size="14.00">Category</text>
<polyline fill="none" stroke="black" points="249.5,-350.25 508.5,-350.25"/>
<text text-anchor="start" x="257.5" y="-332.95" font-family="Times,serif" font-size="14.00">id :uuid</text>
<text text-anchor="start" x="257.5" y="-316.45" font-family="Times,serif" font-size="14.00">name :character varying</text>
<text text-anchor="start" x="257.5" y="-299.95" font-family="Times,serif" font-size="14.00">created_at :timestamp(6) without time zone</text>
<text text-anchor="start" x="257.5" y="-283.45" font-family="Times,serif" font-size="14.00">updated_at :timestamp(6) without time zone</text>
<text text-anchor="start" x="257.5" y="-266.95" font-family="Times,serif" font-size="14.00">description :text</text>
</g>
<!-- Article&#45;&gt;Category -->
<g id="edge1" class="edge">
<title>Article&#45;&gt;Category</title>
<path fill="none" stroke="#12eac2" d="M547.66,-455.4C517.25,-430.67 484.8,-404.28 456.57,-381.33"/>
<polygon fill="#12eac2" stroke="#12eac2" points="547.59,-455.34 552.51,-465.14 551.73,-458.71 555.09,-461.44 555.09,-461.44 555.09,-461.44 551.73,-458.71 558.18,-458.16 547.59,-455.34"/>
<polygon fill="#12eac2" stroke="#12eac2" points="456.74,-381.47 451.82,-371.67 452.6,-378.1 449.24,-375.37 449.24,-375.37 449.24,-375.37 452.6,-378.1 446.14,-378.65 456.74,-381.47"/>
</g>
<!-- Comment -->
<g id="node6" class="node">
<title>Comment</title>
<path fill="none" stroke="black" d="M953.5,-251.5C953.5,-251.5 1188.5,-251.5 1188.5,-251.5 1194.5,-251.5 1200.5,-257.5 1200.5,-263.5 1200.5,-263.5 1200.5,-371 1200.5,-371 1200.5,-377 1194.5,-383 1188.5,-383 1188.5,-383 953.5,-383 953.5,-383 947.5,-383 941.5,-377 941.5,-371 941.5,-371 941.5,-263.5 941.5,-263.5 941.5,-257.5 947.5,-251.5 953.5,-251.5"/>
<text text-anchor="middle" x="1071" y="-365.7" font-family="Times,serif" font-size="14.00">Comment</text>
<polyline fill="none" stroke="black" points="941.5,-358.5 1200.5,-358.5"/>
<text text-anchor="start" x="949.5" y="-341.2" font-family="Times,serif" font-size="14.00">id :uuid</text>
<text text-anchor="start" x="949.5" y="-324.7" font-family="Times,serif" font-size="14.00">user_id :uuid</text>
<text text-anchor="start" x="949.5" y="-308.2" font-family="Times,serif" font-size="14.00">article_id :uuid</text>
<text text-anchor="start" x="949.5" y="-291.7" font-family="Times,serif" font-size="14.00">body :text</text>
<text text-anchor="start" x="949.5" y="-275.2" font-family="Times,serif" font-size="14.00">created_at :timestamp(6) without time zone</text>
<text text-anchor="start" x="949.5" y="-258.7" font-family="Times,serif" font-size="14.00">updated_at :timestamp(6) without time zone</text>
</g>
<!-- Article&#45;&gt;Comment -->
<g id="edge3" class="edge">
<title>Article&#45;&gt;Comment</title>
<path fill="none" stroke="#017996" d="M795.07,-483.53C838.09,-463.6 885.17,-440.37 927,-416.5 941.72,-408.1 956.9,-398.67 971.62,-389.07"/>
<polygon fill="#017996" stroke="#017996" points="795.05,-483.54 784.08,-483.64 790.2,-485.77 786.27,-487.59 786.27,-487.59 786.27,-487.59 790.2,-485.77 787.85,-491.81 795.05,-483.54"/>
<polygon fill="#017996" stroke="#017996" points="971.6,-389.08 982.42,-387.34 976.05,-386.15 979.67,-383.77 979.67,-383.77 979.67,-383.77 976.05,-386.15 977.47,-379.83 971.6,-389.08"/>
</g>
<!-- ActiveStorage::Attachment -->
<g id="node8" class="node">
<title>ActiveStorage::Attachment</title>
<ellipse fill="none" stroke="black" cx="238" cy="-82.75" rx="112.26" ry="18"/>
<text text-anchor="middle" x="238" y="-77.7" font-family="Times,serif" font-size="14.00">ActiveStorage::Attachment</text>
</g>
<!-- Article&#45;&gt;ActiveStorage::Attachment -->
<g id="edge4" class="edge">
<title>Article&#45;&gt;ActiveStorage::Attachment</title>
<path fill="none" stroke="#07705d" d="M528.36,-457.78C524.58,-456.24 520.79,-454.81 517,-453.5 429.62,-423.39 165.13,-484.7 102.75,-416.5 43.21,-351.4 68.84,-299.44 102.75,-218 122.83,-169.78 169.59,-129.97 202.48,-106.54"/>
<polygon fill="#07705d" stroke="#07705d" points="528.23,-457.72 535.63,-465.81 533.13,-459.83 537.11,-461.54 537.11,-461.54 537.11,-461.54 533.13,-459.83 539.19,-457.54 528.23,-457.72"/>
<polygon fill="#07705d" stroke="#07705d" points="202.45,-106.56 213.23,-104.54 206.83,-103.51 210.39,-101.04 210.39,-101.04 210.39,-101.04 206.83,-103.51 208.09,-97.16 202.45,-106.56"/>
<text text-anchor="middle" x="171.62" y="-312.2" font-family="Times,serif" font-size="14.00">cover_image_attachment</text>
</g>
<!-- ActiveStorage::Blob -->
<g id="node9" class="node">
<title>ActiveStorage::Blob</title>
<ellipse fill="none" stroke="black" cx="685" cy="-82.75" rx="86.67" ry="18"/>
<text text-anchor="middle" x="685" y="-77.7" font-family="Times,serif" font-size="14.00">ActiveStorage::Blob</text>
</g>
<!-- Article&#45;&gt;ActiveStorage::Blob -->
<g id="edge5" class="edge">
<title>Article&#45;&gt;ActiveStorage::Blob</title>
<path fill="none" stroke="#0694d6" d="M770.9,-453.99C780.14,-442.37 788.15,-429.82 794,-416.5 835.67,-321.52 836.38,-271.19 781,-183.5 762.45,-154.13 734.25,-126.13 713.2,-107.31"/>
<polygon fill="#0694d6" stroke="#0694d6" points="770.94,-453.96 761.08,-458.76 767.52,-458.05 764.75,-461.38 764.75,-461.38 764.75,-461.38 767.52,-458.05 767.99,-464.52 770.94,-453.96"/>
<polygon fill="#0694d6" stroke="#0694d6" points="713.29,-107.38 708.74,-97.4 709.28,-103.86 706.02,-101.01 706.02,-101.01 706.02,-101.01 709.28,-103.86 702.8,-104.17 713.29,-107.38"/>
<text text-anchor="middle" x="875.62" y="-312.2" font-family="Times,serif" font-size="14.00">cover_image_blob</text>
</g>
<!-- Author&#45;&gt;ActiveStorage::Attachment -->
<g id="edge6" class="edge">
<title>Author&#45;&gt;ActiveStorage::Attachment</title>
<path fill="none" stroke="#8968f1" d="M542.07,-211.9C528.37,-201.62 514.2,-191.9 500,-183.5 437.21,-146.33 358.11,-118.49 303.33,-101.79"/>
<polygon fill="#8968f1" stroke="#8968f1" points="541.86,-211.74 547.08,-221.39 546.1,-214.98 549.54,-217.61 549.54,-217.61 549.54,-217.61 546.1,-214.98 552.54,-214.23 541.86,-211.74"/>
<polygon fill="#8968f1" stroke="#8968f1" points="303.3,-101.78 295.01,-94.59 298.19,-100.25 294.04,-99 294.04,-99 294.04,-99 298.19,-100.25 292.42,-103.21 303.3,-101.78"/>
<text text-anchor="middle" x="594.12" y="-186.7" font-family="Times,serif" font-size="14.00">avatar_image_attachment</text>
</g>
<!-- Author&#45;&gt;ActiveStorage::Blob -->
<g id="edge7" class="edge">
<title>Author&#45;&gt;ActiveStorage::Blob</title>
<path fill="none" stroke="#f971e0" d="M669.49,-208.12C673.97,-172.2 678.58,-135.25 681.59,-111.06"/>
<polygon fill="#f971e0" stroke="#f971e0" points="669.49,-208.07 663.79,-217.43 668.83,-213.36 668.3,-217.66 668.3,-217.66 668.3,-217.66 668.83,-213.36 672.72,-218.55 669.49,-208.07"/>
<polygon fill="#f971e0" stroke="#f971e0" points="681.58,-111.15 687.29,-101.78 682.24,-105.85 682.78,-101.56 682.78,-101.56 682.78,-101.56 682.24,-105.85 678.36,-100.67 681.58,-111.15"/>
<text text-anchor="middle" x="725.12" y="-186.7" font-family="Times,serif" font-size="14.00">avatar_image_blob</text>
</g>
<!-- Category&#45;&gt;ActiveStorage::Attachment -->
<g id="edge8" class="edge">
<title>Category&#45;&gt;ActiveStorage::Attachment</title>
<path fill="none" stroke="#9649f1" d="M279.05,-252.59C262.75,-237.44 248.15,-219.83 238.75,-200 225.42,-171.88 227.88,-135.46 231.94,-110.94"/>
<polygon fill="#9649f1" stroke="#9649f1" points="278.94,-252.5 283.4,-262.51 282.91,-256.05 286.14,-258.94 286.14,-258.94 286.14,-258.94 282.91,-256.05 289.39,-255.8 278.94,-252.5"/>
<polygon fill="#9649f1" stroke="#9649f1" points="231.91,-111.07 238.16,-102.06 232.89,-105.82 233.68,-101.56 233.68,-101.56 233.68,-101.56 232.89,-105.82 229.31,-100.41 231.91,-111.07"/>
<text text-anchor="middle" x="307.62" y="-186.7" font-family="Times,serif" font-size="14.00">cover_image_attachment</text>
</g>
<!-- Category&#45;&gt;ActiveStorage::Blob -->
<g id="edge9" class="edge">
<title>Category&#45;&gt;ActiveStorage::Blob</title>
<path fill="none" stroke="#83a747" d="M375.42,-249.45C377.44,-226.35 383.67,-201.71 398.75,-183.5 446.54,-125.78 529.72,-101.41 594.14,-91.15"/>
<polygon fill="#83a747" stroke="#83a747" points="375.43,-249.27 370.31,-258.96 375.09,-254.59 374.82,-258.91 374.82,-258.91 374.82,-258.91 375.09,-254.59 379.29,-259.53 375.43,-249.27"/>
<polygon fill="#83a747" stroke="#83a747" points="594.09,-91.16 604.64,-94.12 599.36,-90.36 603.64,-89.72 603.64,-89.72 603.64,-89.72 599.36,-90.36 603.31,-85.22 594.09,-91.16"/>
<text text-anchor="middle" x="449.62" y="-186.7" font-family="Times,serif" font-size="14.00">cover_image_blob</text>
</g>
<!-- User -->
<g id="node7" class="node">
<title>User</title>
<path fill="none" stroke="black" d="M919,-0.5C919,-0.5 1223,-0.5 1223,-0.5 1229,-0.5 1235,-6.5 1235,-12.5 1235,-12.5 1235,-153 1235,-153 1235,-159 1229,-165 1223,-165 1223,-165 919,-165 919,-165 913,-165 907,-159 907,-153 907,-153 907,-12.5 907,-12.5 907,-6.5 913,-0.5 919,-0.5"/>
<text text-anchor="middle" x="1071" y="-147.7" font-family="Times,serif" font-size="14.00">User</text>
<polyline fill="none" stroke="black" points="907,-140.5 1235,-140.5"/>
<text text-anchor="start" x="915" y="-123.2" font-family="Times,serif" font-size="14.00">updated_at :timestamp(6) without time zone</text>
<text text-anchor="start" x="915" y="-106.7" font-family="Times,serif" font-size="14.00">email :character varying</text>
<text text-anchor="start" x="915" y="-90.2" font-family="Times,serif" font-size="14.00">encrypted_password :character varying</text>
<text text-anchor="start" x="915" y="-73.7" font-family="Times,serif" font-size="14.00">reset_password_token :character varying</text>
<text text-anchor="start" x="915" y="-57.2" font-family="Times,serif" font-size="14.00">reset_password_sent_at :timestamp(6) without time zone</text>
<text text-anchor="start" x="915" y="-40.7" font-family="Times,serif" font-size="14.00">remember_created_at :timestamp(6) without time zone</text>
<text text-anchor="start" x="915" y="-24.2" font-family="Times,serif" font-size="14.00">created_at :timestamp(6) without time zone</text>
<text text-anchor="start" x="915" y="-7.7" font-family="Times,serif" font-size="14.00">id :uuid</text>
</g>
<!-- Comment&#45;&gt;User -->
<g id="edge10" class="edge">
<title>Comment&#45;&gt;User</title>
<path fill="none" stroke="#6d37d0" d="M1071,-241.01C1071,-220.16 1071,-197.29 1071,-175.61"/>
<polygon fill="#6d37d0" stroke="#6d37d0" points="1071,-240.84 1066.5,-250.84 1071,-246.18 1071,-250.51 1071,-250.51 1071,-250.51 1071,-246.18 1075.5,-250.84 1071,-240.84"/>
<polygon fill="#6d37d0" stroke="#6d37d0" points="1071,-175.75 1075.5,-165.75 1071,-170.41 1071,-166.08 1071,-166.08 1071,-166.08 1071,-170.41 1066.5,-165.75 1071,-175.75"/>
</g>
</g>
</svg>
