<svg xmlns="http://www.w3.org/2000/svg" width="17.916" height="15.926" viewBox="0 0 17.916 15.926"><path d="M17.683,5.519,13.2,9.749a.747.747,0,0,1-1.259-.543V6.968C7.447,7,5.55,8.06,6.819,12.3a.5.5,0,0,1-.778.539A5.987,5.987,0,0,1,3.733,8.378c0-4.477,3.658-5.366,8.212-5.391V.747A.747.747,0,0,1,13.2.2l4.479,4.23A.747.747,0,0,1,17.683,5.519Zm-5.738,6.273v2.142H1.991V3.981H3.574a.373.373,0,0,0,.269-.115A6.064,6.064,0,0,1,5.43,2.695a.373.373,0,0,0-.172-.7H1.493A1.493,1.493,0,0,0,0,3.484V14.433a1.493,1.493,0,0,0,1.493,1.493H12.442a1.493,1.493,0,0,0,1.493-1.493V11.67a.373.373,0,0,0-.5-.352,2.234,2.234,0,0,1-1.063.105A.374.374,0,0,0,11.944,11.793Z" fill="#2f2f2f"/></svg>