<svg xmlns="http://www.w3.org/2000/svg" width="19.28" height="22.889" viewBox="0 0 19.28 22.889"><path d="M127.562,83.519a12.446,12.446,0,0,1-1.231,2.213,11.253,11.253,0,0,1-1.585,1.916,3.077,3.077,0,0,1-2.038.9,5.108,5.108,0,0,1-1.882-.449,5.4,5.4,0,0,0-2.026-.448,5.582,5.582,0,0,0-2.084.448,5.594,5.594,0,0,1-1.8.473,2.9,2.9,0,0,1-2.084-.921,11.8,11.8,0,0,1-1.658-1.984,13.706,13.706,0,0,1-1.753-3.483,12.747,12.747,0,0,1-.737-4.15,7.579,7.579,0,0,1,1-3.966,5.841,5.841,0,0,1,2.085-2.109,5.607,5.607,0,0,1,2.818-.8,6.635,6.635,0,0,1,2.18.507,7.008,7.008,0,0,0,1.729.508,10.344,10.344,0,0,0,1.918-.6,6.335,6.335,0,0,1,2.606-.463,5.533,5.533,0,0,1,4.334,2.282,5,5,0,0,0-.971,8.021,5.221,5.221,0,0,0,1.585,1.04q-.191.553-.4,1.061ZM123.145,66.14a4.882,4.882,0,0,1-1.252,3.2,4.265,4.265,0,0,1-3.542,1.748,3.606,3.606,0,0,1-.027-.434,5.018,5.018,0,0,1,1.328-3.237,5.114,5.114,0,0,1,1.618-1.215,4.825,4.825,0,0,1,1.851-.524,4.131,4.131,0,0,1,.024.458Z" transform="translate(-108.686 -65.682)" fill="#fff"/></svg>