<svg xmlns="http://www.w3.org/2000/svg" width="23" height="23" viewBox="0 0 23 23"><path d="M103.879,2526.956l-11.012,11.1.033-2.571h0a2.3,2.3,0,0,0-2.335-2.318l-2.59.032,11.011-11.1a1.161,1.161,0,0,1,1.632,0l3.261,3.238a1.138,1.138,0,0,1,0,1.619m2.446-2.428-4.891-4.857a2.319,2.319,0,0,0-3.262,0l-13.831,13.9a1.144,1.144,0,0,0,.83,1.954l4.241-.053a1.149,1.149,0,0,1,1.168,1.159l-.054,4.211a1.154,1.154,0,0,0,1.968.823l13.831-13.9a2.277,2.277,0,0,0,0-3.237" transform="translate(-84 -2519)" fill="#fff" fill-rule="evenodd"/></svg>