<svg xmlns="http://www.w3.org/2000/svg" width="21.541" height="20.516" viewBox="0 0 21.541 20.516"><path d="M370.4,484.1a1.078,1.078,0,1,1,1.077,1.026A1.053,1.053,0,0,1,370.4,484.1Zm11.982,13.335a1.053,1.053,0,0,1-1.077,1.026h-1.077v-4.1a2.1,2.1,0,0,0-2.154-2.052h-8.617a2.1,2.1,0,0,0-2.154,2.052v4.1h-1.077a1.053,1.053,0,0,1-1.077-1.026V487.226a.5.5,0,0,1,.157-.362l2-1.9v1.193a2.1,2.1,0,0,0,2.154,2.052h8.617a2.1,2.1,0,0,0,2.154-2.052v-4.1h1.077a1.053,1.053,0,0,1,1.077,1.026Zm-4.308,1.026h-8.617v-3.077a1.053,1.053,0,0,1,1.077-1.026H377a1.053,1.053,0,0,1,1.077,1.026Zm-8.617-15.554.9-.859h7.715v3.077A1.053,1.053,0,0,1,377,486.155h-6.462a1.053,1.053,0,0,1-1.077-1.026ZM382.387,480H369.908a1.1,1.1,0,0,0-.762.3l-5.831,5.554a1,1,0,0,0-.316.725v11.885a2.1,2.1,0,0,0,2.154,2.052h17.233a2.1,2.1,0,0,0,2.154-2.052V482.052A2.1,2.1,0,0,0,382.387,480Z" transform="translate(-363 -480)" fill="#fff" fill-rule="evenodd"/></svg>