<svg xmlns="http://www.w3.org/2000/svg" width="1077.218" height="618.138" viewBox="0 0 1077.218 618.138"><g transform="translate(-21.441 -617.321)"><g transform="translate(21.442 859.289) rotate(-14)"><path d="M395.386,1q-197.148,7.2-367.9,49.192L0,56.949V116.83c0,56.608.109,59.88,1.854,59.117,8.18-3.055,55.954-18.543,79.3-25.633C366.481,64.367,672.974,46.152,986.882,96.761c6.654.981,12.434,1.636,12.761,1.417.327-.327.545-8.4.545-17.888,0-17.124,0-17.343-2.509-18.215-6.217-2.4-68.061-16.033-102.418-22.578C782.481,18.011,666.1,5.14,545.359.887,511-.313,429.2-.313,395.386,1Z" transform="translate(0 0)" fill="#fff"/><path d="M126.709,12.871l.436,12.979-10.8.655c-5.891.327-34.031,1.745-62.5,2.945C25.381,30.759,1.167,32.177.076,32.613c-1.527.546,19.742,11.562,75.805,39.266l77.768,38.5L178.736,107c33.158-4.472,70.46-8.4,101.656-10.689,13.961-.981,24.977-2.182,24.541-2.617C303.733,92.493,128.345,0,127.255,0,126.819,0,126.491,5.782,126.709,12.871Z" transform="translate(515.506 106.686)" fill="#fff"/><path d="M63.046,10.152v10.58l-31.74-.655C13.856,19.75-.215,19.641,0,19.859c.218.327,26.941,14.288,59.336,31.194l58.79,30.65,19.634-.655c10.8-.327,29.559-.654,41.774-.763,12.107,0,22.034-.436,22.034-.764,0-.436-4.583-3.163-10.145-6.108C177.681,66,119,32.511,89.224,14.951,75.7,6.989,64.356.226,63.92.007,63.374-.21,63.046,4.371,63.046,10.152Z" transform="translate(796.44 116.822)" fill="#fff"/><path d="M98.1,18.437,97.768,37.2,49.777,48.323C23.381,54.431,1.022,59.667.149,59.993c-.982.328,2.945,2.837,9.816,6.327,6.326,3.163,40.575,20.724,76.241,38.939L151,138.525l23.014-6c35.994-9.38,90.529-22.032,112.235-25.959,4.036-.763,7.308-1.636,7.308-1.963C293.552,104.059,102.677,1.313,99.3,0,98.75-.214,98.2,8.076,98.1,18.437Z" transform="translate(279.075 128.714)" fill="#fff"/><path d="M130.341,23.017V46.9l-11.125,3.49C106.564,54.211.655,93.15,0,94.022c-.109.327,23.341,18.106,52.136,39.375,28.9,21.269,55.19,41.229,58.572,44.174,6,5.454,18.324,13.634,20.505,13.634.654,0,7.526-2.727,15.161-6.108,36.866-16.033,94.893-39.048,134.486-53.336,26.723-9.6,31.74-11.562,31.413-12.652C311.946,118.346,137.213,2.838,132.3.221,130.45-.761,130.341.657,130.341,23.017Z" transform="translate(6 197.977)" fill="#fff"/><path d="M542.2.988C364.848,11.895,194.15,67.522,20.508,170.922c-10.035,6-19.2,11.562-20.4,12.543-1.963,1.527,19.96,1.636,231.233,1.745,147.683,0,238.759-.436,247.92-1.091,27.814-2.181,51.264-8.29,75.26-19.742A207.845,207.845,0,0,0,669.377,15.822c1.309-7.09,2.182-12.98,1.964-13.307C668.94.224,573.721-.975,542.2.988Z" transform="translate(326.559 265.052)" fill="#fff"/></g></g></svg>