<svg xmlns="http://www.w3.org/2000/svg" width="78.629" height="78.629" viewBox="0 0 78.629 78.629">
  <g id="Group_40" data-name="Group 40" transform="translate(-801 -3679.371)">
    <path id="Path_16" data-name="Path 16" d="M16.568,0H62.061A16.568,16.568,0,0,1,78.629,16.568V62.061A16.568,16.568,0,0,1,62.061,78.629H16.568A16.568,16.568,0,0,1,0,62.061V16.568A16.568,16.568,0,0,1,16.568,0Z" transform="translate(801 3679.371)" fill="#2f2f2f"/>
    <g id="Group_38" data-name="Group 38">
      <path id="Path_1" data-name="Path 1" d="M55.658-957.868c-.11.016-.464.071-.787.118a15.494,15.494,0,0,0-7.039,3.083,15.43,15.43,0,0,0-5.152,7.92c-.448,1.762-.417.668-.448,15.785-.016,9.493,0,13.945.055,13.945.039,0,.865-.157,1.833-.346s2.666-.5,3.791-.692,2.061-.346,2.084-.362-.417-.472-.967-1.022l-1-1V-937.9l1.557-1.557L51.136-941h8.306l1.573,1.549,1.565,1.542v2.745a11.444,11.444,0,0,1-.094,2.737c-.055,0-1.408.181-3.012.393s-2.934.393-2.965.393a15.7,15.7,0,0,1-.063-2.045v-2.045H54.164v13.213h2.281V-927.3l.692-.094c.378-.055,1.746-.244,3.044-.425l2.36-.33.024,3.893.016,3.893-.291.307-.3.307.551-.047c.307-.024.881-.063,1.282-.094l.724-.055V-941h6.213v17.775h5.348v2.989h1.062l-.024-10.382L77.13-941h6.135v18.483h2.36V-941h6.135v20.638l-.37.378c-.3.307-.338.377-.22.377.087.008.669.055,1.3.11a11.57,11.57,0,0,0,1.164.086c.008-.008.024-4.861.039-10.783l.016-10.767,5.82-.024,5.82-.016,1.589,1.589,1.6,1.6v5.891l-1.274,1.282-1.274,1.282,1.274,1.282,1.274,1.274v6.394l-1.337,1.29-1.337,1.29,1.746.3c.967.165,2.824.5,4.121.763s2.43.464,2.5.464c.118,0,.126-1.062.126-13.316,0-8.243-.031-13.709-.079-14.354a14.738,14.738,0,0,0-2.509-7.3,14.942,14.942,0,0,0-10.7-6.559C100.419-957.907,56.161-957.938,55.658-957.868Zm-1.6,8.935.417.409v1.494l-.33.338-.33.338.33.338.33.338v2.47H52.827v-2.517h-.551v2.517H50.624v-6.135h3.02Zm3.091,1.951v2.36H57.7v-4.719h1.652v5.277l-.4.433-.409.425h-2.21l-.417-.409-.417-.409v-5.317h1.652Zm6.662-1.951.417.409v1.494l-.33.338-.33.338.33.338.33.338v1.667l-.448.4-.448.4H60.377v-6.135H63.4Zm2.926.472c.087.488.173.991.189,1.125.024.228.024.228.071.039.024-.11.11-.551.181-.983s.149-.849.173-.928c.031-.118.142-.134.889-.134h.849l-.661,1.982-.661,1.99v2.163H66.2v-2.006l-.669-2.006c-.37-1.1-.669-2.029-.669-2.061a2.8,2.8,0,0,1,.857-.063h.857Zm9.226-.511.378.37v4.562l-.409.417-.409.417H73.4l-.417-.409-.417-.409v-4.562l.37-.377.37-.378h2.281Zm3.618.456c.165.433.464,1.243.661,1.809a6.315,6.315,0,0,0,.307.826c-.031-.11-.071-.928-.094-1.833l-.039-1.628h1.431v6.135h-1.77l-.511-1.321c-.275-.724-.558-1.518-.629-1.778-.126-.448-.126-.425-.094,1.321l.039,1.785-.739-.024-.739-.024-.024-3.052-.016-3.052.952.024.952.024Zm9.635-.417.417.409v1.416l-.322.385-.33.385.33.33.33.33-.024,1.219-.024,1.211-.8.024-.81.024v-2.533l-.291.024-.3.024-.024,1.235-.024,1.243H85.782v-6.135H88.8Zm4.617-.2c.024.126.244,1.408.48,2.855s.456,2.729.48,2.847l.047.22H93.1l-.047-.377c-.024-.2-.055-.425-.063-.488-.016-.087-.118-.118-.409-.118-.378,0-.393.008-.417.236-.008.126-.039.354-.063.488l-.039.259H90.328l.047-.22c.024-.118.244-1.4.48-2.847s.456-2.729.48-2.855l.047-.212h2.407Zm3.351,2.855v3.067H95.534v-6.135h1.652Zm2.674-.786v2.281H101.2v1.573H98.208v-6.135H99.86Zm5.6-1.911c.378.37.378.378.378.9v.527l-.645.087c-.362.055-.716.11-.787.134-.11.031-.134-.024-.157-.338-.024-.378-.024-.378-.3-.378-.26,0-.275.016-.3.275l-.024.283,1.109.614,1.1.613v2.218l-.409.417-.409.417H102.9l-.417-.409-.417-.409v-1.29l.653-.094c.354-.047.708-.11.779-.126.118-.031.134.031.157.456l.024.5h.551v-.763l-1.077-.6-1.085-.606v-2.037l.37-.377.37-.378h2.281Z" transform="translate(762.133 4640.538)" fill="#fff"/>
      <g id="Group_37" data-name="Group 37">
        <path id="Path_2" data-name="Path 2" d="M170-832.473v.535h.551V-833H170Z" transform="translate(644.409 4525.455)" fill="#fff"/>
        <path id="Path_3" data-name="Path 3" d="M293.055-831.945a1.216,1.216,0,0,0-.055.472v.417h.629V-832h-.26A.607.607,0,0,0,293.055-831.945Z" transform="translate(531.083 4524.533)" fill="#fff"/>
        <path id="Path_4" data-name="Path 4" d="M293-801.489v.511h.629V-802H293Z" transform="translate(531.083 4496.893)" fill="#fff"/>
        <path id="Path_5" data-name="Path 5" d="M448.055-831.945a13.468,13.468,0,0,0-.055,1.691v1.636h.629V-832h-.26A.607.607,0,0,0,448.055-831.945Z" transform="translate(388.274 4524.533)" fill="#fff"/>
        <path id="Path_6" data-name="Path 6" d="M615.924-832.481l.024.527.3.008.291.008V-833H615.9Z" transform="translate(233.579 4525.455)" fill="#fff"/>
        <path id="Path_7" data-name="Path 7" d="M678.413-829.286c-.079.558-.165,1.062-.181,1.109-.032.071.063.1.322.1.354,0,.354-.008.315-.22-.024-.126-.1-.621-.181-1.117l-.134-.889Z" transform="translate(176.156 4522.967)" fill="#fff"/>
        <path id="Path_8" data-name="Path 8" d="M775.18-675.9c-.016.055-.024.912-.016,1.9l.024,1.809,1.164.024,1.156.024V-676h-1.14C775.51-676,775.211-675.976,775.18-675.9Z" transform="translate(86.845 4380.803)" fill="#fff"/>
        <path id="Path_9" data-name="Path 9" d="M775.055-561.945a21.046,21.046,0,0,0-.055,2.124v2.069h2.438V-562h-1.164A7.15,7.15,0,0,0,775.055-561.945Z" transform="translate(86.993 4275.769)" fill="#fff"/>
      </g>
    </g>
    <g id="Group_39" data-name="Group 39">
      <path id="Path_10" data-name="Path 10" d="M70.511-453.741a131.4,131.4,0,0,0-26.529,3.547L42-449.706v4.318c0,4.082.008,4.318.134,4.263.59-.22,4.035-1.337,5.718-1.848,20.575-6.2,42.676-7.511,65.312-3.862a6.9,6.9,0,0,0,.92.1,10.843,10.843,0,0,0,.039-1.29c0-1.235,0-1.251-.181-1.314-.448-.173-4.908-1.156-7.385-1.628a165.671,165.671,0,0,0-25.231-2.784C78.848-453.836,72.949-453.836,70.511-453.741Z" transform="translate(762.342 4176.091)" fill="#b9b9b9"/>
      <path id="Path_11" data-name="Path 11" d="M523.767-355.072l.031.936-.779.047c-.425.024-2.454.126-4.507.212s-3.8.2-3.878.228a50.842,50.842,0,0,0,5.466,2.831l5.608,2.776,1.809-.244c2.391-.322,5.081-.606,7.33-.771a12.056,12.056,0,0,0,1.77-.189c-.087-.087-12.734-6.756-12.812-6.756A3.491,3.491,0,0,0,523.767-355.072Z" transform="translate(326.885 4085.971)" fill="#b9b9b9"/>
      <path id="Path_12" data-name="Path 12" d="M776.744-345.975v.763l-2.289-.047c-1.258-.024-2.273-.031-2.257-.016s1.943,1.03,4.279,2.249l4.239,2.21,1.416-.047c.779-.024,2.132-.047,3.012-.055a13.021,13.021,0,0,0,1.589-.055,4,4,0,0,0-.731-.44c-.991-.535-5.222-2.949-7.37-4.216-.975-.574-1.793-1.062-1.825-1.078A1.927,1.927,0,0,0,776.744-345.975Z" transform="translate(89.575 4077.409)" fill="#b9b9b9"/>
      <path id="Path_13" data-name="Path 13" d="M304.937-334.474l-.024,1.353-3.461.8c-1.9.44-3.516.818-3.579.842s.212.2.708.456c.456.228,2.926,1.494,5.5,2.808l4.672,2.4,1.66-.433c2.6-.676,6.528-1.589,8.093-1.872a1.863,1.863,0,0,0,.527-.142c0-.039-13.764-7.448-14.008-7.543A5.992,5.992,0,0,0,304.937-334.474Z" transform="translate(526.602 4067.364)" fill="#b9b9b9"/>
      <path id="Path_14" data-name="Path 14" d="M56.9-270.643v1.722l-.8.252c-.912.275-8.549,3.083-8.6,3.146-.008.024,1.683,1.306,3.76,2.839s3.98,2.973,4.224,3.185a5.824,5.824,0,0,0,1.479.983,10.638,10.638,0,0,0,1.093-.44c2.658-1.156,6.843-2.816,9.7-3.846,1.927-.692,2.289-.834,2.265-.912-.024-.055-12.624-8.384-12.977-8.573C56.906-272.357,56.9-272.255,56.9-270.643Z" transform="translate(757.275 4008.856)" fill="#b9b9b9"/>
      <path id="Path_15" data-name="Path 15" d="M380.5-210.734c-12.789.786-25.1,4.8-37.619,12.254-.724.433-1.384.834-1.471.9-.142.11,1.439.118,16.674.126,10.649,0,17.217-.031,17.877-.079a14.777,14.777,0,0,0,5.427-1.424,14.988,14.988,0,0,0,8.282-10.712,7.09,7.09,0,0,0,.142-.96A84.78,84.78,0,0,0,380.5-210.734Z" transform="translate(486.492 3952.197)" fill="#b9b9b9"/>
    </g>
  </g>
</svg>
