<svg xmlns="http://www.w3.org/2000/svg" width="1718.854" height="313" viewBox="0 0 1718.854 313"><path d="M1556.422,807.291q14.893-2.716,29.843-5.244c43.52-7.387,158.644-20.657,205.446-24.374v29.618Zm-967.944,0c9.907-3.064,20.735-6.406,32-9.877l80.592-24.862-4.61-24.976c-2.671-13.78-4.009-24.9-3-24.725,4.8.789,218.745,57.709,317.954,84.439Zm-515.622,0V688.32q281.025-88.608,615-138.612c58.583-8.848,201.191-26.049,261.417-31.681,211.665-19.742,418.1-27.126,620.642-22.315,61.7,1.465,173.278,6.561,184.779,8.439,4.613.631,4.674.921,9.4,23.655,2.621,12.6,4.469,23.359,3.989,23.862-.51.359-10.769.705-22.638.8C1191.505,551.3,668.712,637.624,199.741,807.291Zm1005.722-63.055c-105.384-24.993-145.5-35.145-142.992-36.19,1.781-.809,43.6-7.783,92.867-15.506,49.3-7.579,97.962-15.379,108.14-17.052l18.644-3.14-4.344-17.14c-2.338-9.367-3.364-17.11-2.6-17.2,1.9-.229,333.191,85.687,335.613,87.028.881.487-17.993,4.4-42.059,8.635-53.749,9.6-117.694,22.658-174.262,35.567l-42.8,9.763Zm457.953-69.786c-61.14-15.632-111.581-28.549-112.049-28.937-.442-.244,24.117-3.057,54.63-6.292l55.512-5.806-2.921-14.046c-1.6-7.674-2.29-13.825-1.279-13.651.821.2,22.462,6.79,48.238,14.518,56.759,17.052,168.3,49.168,194.307,56.125,8.912,2.324,16.55,4.587,18.741,5.575v.635c-3.269.811-18.882,3.159-37.569,5.413-21.265,2.713-53.88,7.092-72.615,9.8l-34.045,5Z" transform="translate(-72.856 -494.291)" fill="#c00"/></svg>