<svg xmlns="http://www.w3.org/2000/svg" width="106.305" height="106.305" viewBox="0 0 106.305 106.305"><g transform="translate(-261 779)"><path d="M22.4,0H83.905a22.4,22.4,0,0,1,22.4,22.4V83.905a22.4,22.4,0,0,1-22.4,22.4H22.4A22.4,22.4,0,0,1,0,83.905V22.4A22.4,22.4,0,0,1,22.4,0Z" transform="translate(261 -779)" fill="#fff"/><path d="M60.386-957.853c-.149.021-.627.1-1.063.159a20.949,20.949,0,0,0-9.517,4.168,20.862,20.862,0,0,0-6.965,10.708c-.606,2.382-.564.9-.606,21.341-.021,12.835,0,18.853.074,18.853.053,0,1.17-.213,2.478-.468s3.6-.681,5.125-.936,2.786-.468,2.818-.489-.564-.638-1.308-1.382l-1.35-1.35v-23.606l2.105-2.105,2.095-2.095H65.5l2.127,2.095,2.116,2.084v3.711c0,2.892-.032,3.7-.128,3.7-.074,0-1.9.245-4.073.532s-3.966.532-4.009.532a21.224,21.224,0,0,1-.085-2.765v-2.765H58.365v17.864h3.084v-6.465l.936-.128c.51-.075,2.361-.33,4.115-.574l3.19-.447.032,5.264.021,5.263-.393.415-.4.415.744-.064c.415-.032,1.191-.085,1.733-.128l.978-.074v-28.466h8.4v24.032h7.231v4.041h1.436l-.032-14.036-.021-14.036h8.294v24.989h3.19v-24.989h8.294v27.9l-.5.51c-.4.415-.457.51-.3.51.117.011.9.074,1.755.149a15.671,15.671,0,0,0,1.574.117c.011-.011.032-6.572.053-14.578L111.8-935l7.869-.032,7.869-.021,2.148,2.148,2.159,2.159v7.964l-1.723,1.733-1.723,1.733,1.723,1.733,1.723,1.723v8.645l-1.808,1.744-1.808,1.744,2.361.4c1.308.223,3.817.681,5.572,1.031s3.286.627,3.381.627c.16,0,.17-1.435.17-18,0-11.144-.043-18.534-.106-19.406a19.925,19.925,0,0,0-3.392-9.868,20.2,20.2,0,0,0-14.472-8.868C120.9-957.907,61.066-957.949,60.386-957.853Zm-2.159,12.08.564.553v2.02l-.447.457-.447.457.447.457.447.457v3.339H56.558v-3.4h-.744v3.4H53.58v-8.294h4.083Zm4.179,2.637v3.19h.744v-6.38h2.233v7.135l-.542.585-.553.574H61.3l-.564-.553-.564-.553v-7.188h2.233Zm9.007-2.637.564.553v2.02l-.447.457-.447.457.447.457.447.457v2.254l-.606.542-.606.542h-4v-8.294h4.083Zm3.956.638c.117.659.234,1.34.255,1.521.032.308.032.308.1.053.032-.149.149-.744.245-1.329s.2-1.148.234-1.255c.043-.16.191-.181,1.2-.181h1.148l-.893,2.68-.893,2.69v2.924H74.635v-2.712l-.9-2.711c-.5-1.489-.9-2.743-.9-2.786a3.785,3.785,0,0,1,1.159-.085h1.159Zm12.473-.691.51.5v6.167l-.553.564-.553.564H84.375l-.564-.553-.564-.553v-6.167l.5-.51.5-.51h3.084Zm4.891.617c.223.585.627,1.68.893,2.446a8.533,8.533,0,0,0,.415,1.117c-.043-.149-.1-1.255-.128-2.478l-.053-2.2H95.8v8.294H93.4l-.691-1.786c-.372-.978-.755-2.052-.851-2.4-.17-.606-.17-.574-.128,1.786l.053,2.414-1-.032-1-.032-.032-4.126-.021-4.126,1.287.032,1.287.032Zm13.026-.564.564.553v1.914l-.436.521-.447.521.447.447.447.447-.032,1.648-.032,1.638-1.085.032-1.1.032v-3.424l-.393.032-.4.032-.032,1.669-.032,1.68h-2.116v-8.294H105.2ZM112-946.04c.032.17.33,1.9.649,3.86s.617,3.69.649,3.849l.064.3h-2.35l-.064-.51c-.032-.276-.074-.574-.085-.659-.021-.117-.16-.159-.553-.159-.51,0-.532.011-.564.319-.011.17-.053.479-.085.659l-.053.351h-2.35l.064-.3c.032-.16.33-1.893.649-3.849s.617-3.69.649-3.86l.064-.287h3.254Zm4.53,3.86v4.147H114.3v-8.294h2.233Zm3.615-1.063v3.084h1.808v2.127h-4.041v-8.294h2.233Zm7.571-2.584c.51.5.51.51.51,1.212v.713l-.872.117c-.489.074-.968.149-1.063.181-.149.043-.181-.032-.213-.457-.032-.51-.032-.51-.4-.51-.351,0-.372.021-.4.372l-.032.383,1.5.829,1.489.829v3l-.553.564-.553.564H124.25l-.564-.553-.564-.553v-1.744l.883-.128c.479-.064.957-.149,1.053-.17.16-.043.181.042.213.617l.032.67h.744v-1.031l-1.457-.808-1.467-.819v-2.754l.5-.51.5-.51h3.084Z" transform="translate(223.315 183.314)" fill="#930f17"/><path d="M170-832.288v.723h.744V-833H170Z" transform="translate(109.129 71.689)" fill="#930f17"/><path d="M293.074-831.926a1.644,1.644,0,0,0-.074.638v.564h.851V-832H293.5A.821.821,0,0,0,293.074-831.926Z" transform="translate(-0.792 70.795)" fill="#930f17"/><path d="M293-801.309v.691h.851V-802H293Z" transform="translate(-0.792 43.985)" fill="#930f17"/><path d="M448.074-831.926a18.221,18.221,0,0,0-.074,2.286v2.212h.851V-832H448.5A.821.821,0,0,0,448.074-831.926Z" transform="translate(-139.31 70.795)" fill="#930f17"/><path d="M615.932-832.3l.032.713.4.01.393.011V-833H615.9Z" transform="translate(-289.357 71.689)" fill="#930f17"/><path d="M678.478-828.928c-.106.755-.223,1.435-.245,1.5-.043.1.085.138.436.138.479,0,.479-.011.425-.3-.032-.17-.138-.84-.245-1.51l-.181-1.2Z" transform="translate(-345.055 69.276)" fill="#930f17"/><path d="M775.186-675.862c-.021.074-.032,1.233-.021,2.573l.032,2.446,1.574.032,1.563.032V-676h-1.542C775.633-676,775.229-675.968,775.186-675.862Z" transform="translate(-431.683 -68.617)" fill="#930f17"/><path d="M775.075-561.926a28.439,28.439,0,0,0-.074,2.871v2.8h3.3V-562h-1.574A9.672,9.672,0,0,0,775.075-561.926Z" transform="translate(-431.539 -170.495)" fill="#930f17"/><path d="M80.546-453.716a177.646,177.646,0,0,0-35.867,4.8l-2.68.659v5.838c0,5.519.011,5.838.181,5.763.8-.3,5.455-1.808,7.731-2.5,27.817-8.379,57.7-10.155,88.3-5.221a9.335,9.335,0,0,0,1.244.138,14.658,14.658,0,0,0,.053-1.744c0-1.669,0-1.691-.245-1.776-.606-.234-6.635-1.563-9.985-2.2a223.984,223.984,0,0,0-34.112-3.764C91.818-453.844,83.843-453.844,80.546-453.716Z" transform="translate(223.518 -267.178)" fill="#c00"/><path d="M526.983-354.745l.043,1.265-1.053.064c-.574.032-3.318.17-6.093.287s-5.136.266-5.242.308c-.149.053,1.925,1.127,7.39,3.828l7.582,3.754,2.446-.33c3.233-.436,6.869-.819,9.91-1.042a16.308,16.308,0,0,0,2.393-.255c-.117-.117-17.216-9.134-17.322-9.134A4.725,4.725,0,0,0,526.983-354.745Z" transform="translate(-198.855 -354.59)" fill="#c00"/><path d="M778.344-345.717v1.031l-3.094-.064c-1.7-.032-3.073-.042-3.052-.021s2.626,1.393,5.785,3.041l5.731,2.988,1.914-.064c1.053-.032,2.882-.064,4.073-.074a17.6,17.6,0,0,0,2.148-.074,5.421,5.421,0,0,0-.989-.6c-1.34-.723-7.061-3.988-9.964-5.7-1.318-.776-2.424-1.436-2.467-1.457A2.6,2.6,0,0,0,778.344-345.717Z" transform="translate(-429.034 -362.895)" fill="#c00"/><path d="M307.427-334.006l-.032,1.829-4.679,1.085c-2.573.6-4.753,1.106-4.838,1.138s.287.277.957.617c.617.308,3.956,2.02,7.433,3.8l6.316,3.243,2.244-.585c3.509-.914,8.826-2.148,10.942-2.531a2.519,2.519,0,0,0,.712-.191c0-.053-18.609-10.07-18.938-10.2A8.1,8.1,0,0,0,307.427-334.006Z" transform="translate(-5.138 -372.638)" fill="#c00"/><path d="M60.207-270.059v2.329l-1.085.34c-1.233.372-11.559,4.168-11.622,4.253-.011.032,2.276,1.765,5.083,3.839s5.381,4.019,5.71,4.307a7.874,7.874,0,0,0,2,1.329,14.392,14.392,0,0,0,1.478-.6c3.594-1.563,9.251-3.807,13.111-5.2,2.605-.936,3.094-1.127,3.062-1.233-.032-.074-17.067-11.335-17.545-11.591C60.217-272.377,60.207-272.238,60.207-270.059Z" transform="translate(218.603 -429.387)" fill="#c00"/><path d="M394.257-210.709c-17.29,1.063-33.931,6.486-50.86,16.567-.978.585-1.872,1.127-1.988,1.223-.191.149,1.946.16,22.543.17,14.4,0,23.277-.043,24.17-.106a19.978,19.978,0,0,0,7.337-1.925,20.263,20.263,0,0,0,11.2-14.483,9.587,9.587,0,0,0,.191-1.3C406.613-210.784,397.33-210.9,394.257-210.709Z" transform="translate(-44.044 -484.345)" fill="#c00"/></g></svg>