<svg xmlns="http://www.w3.org/2000/svg" width="1680.187" height="313" viewBox="0 0 1680.187 313"><path d="M1556.42,807.291q14.893-2.716,29.844-5.244c34.082-5.785,112.074-15.177,166.779-20.764v26.009Zm-967.942,0c9.907-3.064,20.735-6.406,32-9.878l80.591-24.862-4.609-24.975c-2.672-13.78-4.01-24.9-3-24.725,4.8.788,218.744,57.708,317.953,84.439Zm-515.622,0V688.32q281.025-88.609,615-138.612c58.583-8.848,201.19-26.05,261.417-31.681,211.664-19.741,418.1-27.126,620.642-22.315,59.446,1.411,165.187,6.193,183.125,8.221v48.439c-2.392.044-4.953.077-7.594.1C1191.506,551.3,668.712,637.624,199.741,807.291Zm1005.721-63.055c-105.383-24.992-145.5-35.145-142.992-36.19,1.782-.809,43.6-7.783,92.867-15.507,49.3-7.578,97.961-15.377,108.14-17.051l18.643-3.14-4.344-17.14c-2.338-9.366-3.363-17.11-2.6-17.2,1.9-.229,333.19,85.685,335.614,87.026.88.488-17.992,4.4-42.06,8.635-53.749,9.6-117.694,22.658-174.263,35.566L1224.78,779Zm457.954-69.786c-61.141-15.632-111.58-28.549-112.05-28.937-.442-.244,24.117-3.057,54.631-6.293l55.513-5.8-2.922-14.046c-1.6-7.674-2.29-13.826-1.278-13.65.82.2,22.462,6.79,48.238,14.518,47.135,14.16,132.046,38.709,174.38,50.611v17.278c-21.277,2.721-53.1,7-71.517,9.656l-34.045,5Z" transform="translate(-72.856 -494.291)" fill="#c00"/></svg>