<svg xmlns="http://www.w3.org/2000/svg" width="124" height="124" viewBox="0 0 124 124"><g transform="translate(-6563 1740)"><rect width="124" height="124" transform="translate(6563 -1740)" fill="#ad1925"/><g transform="translate(-54.04 373.836)"><g transform="translate(6638.889 -2095.25)"><g transform="translate(0 3.142)"><path d="M102.99,114.181C98.419,105.53,69.04,100.1,69.04,100.1s-29.378,5.428-33.95,14.079c-3.377,12-6.2,27.257-6.2,27.257h80.3S107.284,125.083,102.99,114.181Z" transform="translate(-28.889 -39.394)" fill="#f1c9a5"/><path d="M72.5,100.1s29.378,5.428,33.95,14.079c4.294,10.9,6.2,27.257,6.2,27.257H72.5Z" transform="translate(-32.349 -39.394)" fill="#e4b692"/><rect width="15.997" height="26.77" transform="translate(32.152 43.121)" fill="#f1c9a5"/><rect width="7.999" height="26.77" transform="translate(40.151 43.121)" fill="#e4b692"/><path d="M63.813,93.405c1.439,4.129,7.245,6.5,11.508,6.5a14.369,14.369,0,0,0,4.488-.731V81h-16Z" transform="translate(-31.66 -37.879)" fill="#ddac8c" opacity="0.1"/><path d="M91.294,60.392c0-16.721-9.209-26.229-20.566-26.229S50.162,43.672,50.162,60.392c0,22.491,9.209,30.278,20.566,30.278S91.294,81.946,91.294,60.392Z" transform="translate(-30.577 -34.163)" fill="#f1c9a5"/><path d="M90.946,73.819c-3.728-.39-6.245-4.407-5.614-8.967s4.156-7.952,7.885-7.563,6.239,4.4,5.611,8.966S94.673,74.2,90.946,73.819Z" transform="translate(-33.359 -35.995)" fill="#e4b692"/><path d="M45.152,66.256c-.63-4.564,1.885-8.578,5.609-8.966s7.263,3,7.888,7.563-1.89,8.577-5.616,8.967S45.778,70.82,45.152,66.256Z" transform="translate(-30.172 -35.995)" fill="#f1c9a5"/><path d="M93.066,60.392c0-16.721-9.209-26.229-20.566-26.229V90.67C83.857,90.67,93.066,81.946,93.066,60.392Z" transform="translate(-32.349 -34.163)" fill="#e4b692"/><path d="M89.323,77.358c-1.106,3.11-2.977,6.85-6.36,6.85-4.226,0-7.25-3.435-12.1-3.435l-.04,0-.043,0c-4.848,0-7.869,3.435-12.1,3.435-3.381,0-5.252-3.74-6.358-6.85l-.957-5.992v7.17s1.606,8.443,4.69,10.484c2.512,2.232,10.714,6.054,14.723,6.054h0l.043,0,.04,0h0c4.011,0,12.212-3.823,14.721-6.054,3.084-2.04,4.692-10.484,4.692-10.484v-7.17Z" transform="translate(-30.672 -37.114)" fill="#303030"/><path d="M75.558,87.249a3.143,3.143,0,0,0-3.347-2.179,3.467,3.467,0,0,0-3.347,2.179Z" transform="translate(-32.06 -38.202)" fill="#fff"/></g><path d="M83.212,43.6S81.5,48.99,69.257,54.376s-17.627,7.1-16.647,12.486C47.348,57.257,49.3,30.75,69.745,30.75,85.782,30.75,85.169,40.176,83.212,43.6Z" transform="translate(-30.574 -30.75)" fill="#303030"/><path d="M93.668,57.495S86.56,45.009,81.541,44.4c2.2-7.223,5.156-6.733,5.156-6.733S94.66,39.126,93.668,57.495Z" transform="translate(-33.066 -31.298)" fill="#303030"/><path d="M102.99,114.4c-2.67-5.052-13.792-9-22.589-11.415.07-1.227-2.132,6.006-2.132,6.006L69.332,129.03l-8.36-18.688-3.292-7.36c-8.8,2.414-19.919,6.364-22.589,11.415-3.378,12-6.2,27.257-6.2,27.257h80.3S107.284,125.3,102.99,114.4Z" transform="translate(-28.889 -36.469)" fill="#1f3a4d"/></g></g></g></svg>