<svg xmlns="http://www.w3.org/2000/svg" width="124" height="124.001" viewBox="0 0 124 124.001"><g transform="translate(-6421 1884)"><rect width="124" height="124" transform="translate(6421 -1884)" fill="#fc611f"/><g transform="translate(-131.614 176.228)"><g transform="translate(6542.227 -2081)"><path d="M107.053,116.94c-4.666-8.833-34.666-14.376-34.666-14.376s-30,5.543-34.666,14.376c-3.449,12.258-6.334,27.833-6.334,27.833h82S111.438,128.073,107.053,116.94Z" fill="#f1c9a5"/><path d="M72.387,102.564s30,5.543,34.666,14.376c4.386,11.133,6.334,27.833,6.334,27.833h-41Z" fill="#e4b692"/><rect width="16.334" height="27.336" transform="translate(64.22 84.606)" fill="#f1c9a5"/><rect width="8.167" height="27.336" transform="translate(72.387 84.606)" fill="#e4b692"/><path d="M64.22,97.273c1.469,4.217,7.4,6.634,11.751,6.634a14.682,14.682,0,0,0,4.583-.747V84.606H64.22Z" fill="#ddac8c" opacity="0.1"/><path d="M93.387,67.357c0-17.074-9.4-26.783-21-26.783s-21,9.709-21,26.783c0,22.966,9.4,30.917,21,30.917S93.387,89.366,93.387,67.357Z" fill="#f1c9a5"/><path d="M90.19,79.2c-3.807-.4-6.377-4.5-5.732-9.156s4.242-8.12,8.051-7.724,6.371,4.5,5.729,9.156S94,79.591,90.19,79.2Z" fill="#e4b692"/><path d="M46.685,71.474c-.643-4.66,1.924-8.76,5.727-9.156s7.416,3.063,8.055,7.724S58.537,78.8,54.733,79.2,47.323,76.134,46.685,71.474Z" fill="#f1c9a5"/><path d="M93.387,67.357c0-17.074-9.4-26.783-21-26.783v57.7C83.984,98.274,93.387,89.366,93.387,67.357Z" fill="#e4b692"/><path d="M91.277,81.668c-1.13,3.176-3.041,6.994-6.494,6.994-4.316,0-7.4-3.508-12.354-3.508l-.041,0-.043,0c-4.95,0-8.036,3.508-12.354,3.508-3.453,0-5.363-3.818-6.493-6.994L52.52,75.55v7.321s1.641,8.622,4.79,10.705c2.565,2.279,10.938,6.183,15.033,6.183h0l.043,0,.041,0h0c4.1,0,12.469-3.9,15.033-6.183,3.149-2.083,4.79-10.705,4.79-10.705V75.55Z" fill="#2e5870"/><path d="M107.053,116.94c-2.726-5.158-14.082-9.191-23.065-11.656a11.619,11.619,0,0,1-23.2,0c-8.983,2.465-20.34,6.5-23.065,11.656-3.449,12.258-6.334,27.833-6.334,27.833h82S111.438,128.073,107.053,116.94Z" fill="#11b2bc"/><path d="M32.264,140.273c-.555,2.763-.877,4.5-.877,4.5h82s-.205-1.756-.631-4.5Z" fill="#1695a6"/><path d="M33.192,135.773H112c-.257-1.414-.551-2.93-.882-4.5H34.17C33.817,132.855,33.49,134.367,33.192,135.773Z" fill="#1695a6"/><path d="M35.2,126.773H110.09c-.374-1.507-.78-3.019-1.221-4.5H36.3C35.922,123.775,35.554,125.284,35.2,126.773Z" fill="#1695a6"/><path d="M72.387,116.244a11.549,11.549,0,0,1-7.741-2.971H41.236a11.33,11.33,0,0,0-3.515,3.667c-.077.275-.154.555-.231.833h69.881c-.1-.28-.21-.56-.317-.833a11.33,11.33,0,0,0-3.515-3.667H80.129A11.555,11.555,0,0,1,72.387,116.244Z" fill="#1695a6"/><path d="M50.066,108.773H61.543a11.57,11.57,0,0,1-.757-3.489A109.434,109.434,0,0,0,50.066,108.773Z" fill="#1695a6"/><path d="M83.23,108.773H94.708a109.186,109.186,0,0,0-10.721-3.489A11.557,11.557,0,0,1,83.23,108.773Z" fill="#1695a6"/><path d="M57.37,106.269a15.2,15.2,0,0,0,30.034,0c-1.161-.352-2.307-.68-3.416-.984a11.619,11.619,0,0,1-23.2,0C59.677,105.589,58.531,105.917,57.37,106.269Z" fill="#1695a6"/><path d="M50.329,65.554S71.675,61.5,82.887,52.016c3.162,7.188,5.1,14.975,10.274,14.975,2.588-14.373-4.312-26.663-17.822-26.663S50.616,47.154,50.329,65.554Z" fill="#2e5870"/></g></g></g></svg>