<svg xmlns="http://www.w3.org/2000/svg" width="124" height="124.001" viewBox="0 0 124 124.001"><g transform="translate(-6705 1884)"><rect width="124" height="124" transform="translate(6705 -1884)" fill="#a6d9ea"/><g transform="translate(104.807 202.614)"><g transform="translate(6595 -2097)"><g transform="translate(0 0)"><path d="M70.739,32.966s-9.4-2.212-17.42,3.87-3.76,14.738-11.5,21.65-6.635,13.131-2.349,20.734-5.4,11.156-2.671,20.434c2.649,8.993,12.069,13.592,12.069,13.592h42.16s13.594-10.051,14.285-17.377-6.955-10.975-4.742-16.089a16.582,16.582,0,0,0-2.716-17.9c-6.269-6.912-1.414-8.354-6.135-17.91C86.269,32.945,78.337,30.553,70.739,32.966Z" transform="translate(-2.592 -2.304)" fill="#471b18"/><g transform="translate(29.134 37.663)"><path d="M101.625,115.909c-4.331-8.2-32.179-13.345-32.179-13.345S41.6,107.709,37.267,115.909c-3.2,11.379-5.88,25.836-5.88,25.836H107.5S105.695,126.243,101.625,115.909Z" transform="translate(-31.387 -45.021)" fill="#f1c9a5"/><path d="M72.387,102.564s27.848,5.145,32.179,13.345c4.07,10.334,5.88,25.836,5.88,25.836H72.387Z" transform="translate(-34.328 -45.021)" fill="#e4b692"/><rect width="15.162" height="25.375" transform="translate(30.477 40.873)" fill="#f1c9a5"/><rect width="7.58" height="25.375" transform="translate(38.059 40.873)" fill="#e4b692"/><path d="M64.219,96.364c1.364,3.914,6.867,6.158,10.909,6.158a13.618,13.618,0,0,0,4.253-.693V84.606H64.219Z" transform="translate(-33.742 -43.733)" fill="#ddac8c" opacity="0.1"/><path d="M90.374,65.436c0-15.849-8.727-24.862-19.493-24.862S51.387,49.586,51.387,65.436s8.727,28.7,19.493,28.7S90.374,81.286,90.374,65.436Z" transform="translate(-32.822 -40.574)" fill="#f1c9a5"/><path d="M89.772,77.906c-3.534-.394-5.919-4.44-5.321-9.034s3.938-8.011,7.473-7.62,5.914,4.436,5.318,9.034S93.306,78.294,89.772,77.906Z" transform="translate(-35.187 -42.055)" fill="#e4b692"/><path d="M46.677,70.285c-.6-4.6,1.786-8.643,5.316-9.034s6.884,3.022,7.477,7.62-1.792,8.641-5.323,9.034S47.27,74.883,46.677,70.285Z" transform="translate(-32.477 -42.055)" fill="#f1c9a5"/><path d="M91.88,65.436c0-15.849-8.727-24.862-19.493-24.862v53.56C83.153,94.134,91.88,81.286,91.88,65.436Z" transform="translate(-34.328 -40.574)" fill="#e4b692"/></g><path d="M46.9,142.8H94.124v-25.59H46.9Z" transform="translate(-3.365 -8.409)" fill="#fff"/><path d="M64.871,141.9l-4.4-37.137c-9.853,1.546-21.019,7.165-23.2,11.3-3.2,11.379-5.88,25.836-5.88,25.836H64.871Z" transform="translate(-2.253 -7.516)" fill="#fe393e"/><path d="M79.336,141.91h31.608s-1.809-15.5-5.88-25.836c-3.553-6.331-17.6-9.76-22.494-11.2Z" transform="translate(-5.693 -7.524)" fill="#fe393e"/><path d="M70.182,48.678s-4.2,9.062-10.118,11.912C50.738,65.085,58.83,71.947,57.744,81.1c-.979,8.255-10.568,12.022-4.975,20.9-9.723,1.915-9.259-2.982-9.259-2.982s-.928-25.495-1.16-26.079,5.57-16.365,5.57-16.365L56.262,38.7l14.923-3.02Z" transform="translate(-3.039 -2.56)" fill="#471b18"/><path d="M71.983,48.673s.47,7.116,7.629,7.735,8.09,5.865,6.7,10.59S84.3,74.355,88.166,78.068,87.7,96.119,87.7,96.119l14.234-6.773s-3.036-11.513-1.392-17.93S94.818,60.431,92.961,55.79,81.784,34.4,74.242,35.675s-6.785,9.285-6.785,9.285Z" transform="translate(-4.839 -2.554)" fill="#471b18"/></g></g></g></g></svg>