<svg xmlns="http://www.w3.org/2000/svg" width="24" height="22.857" viewBox="0 0 24 22.857"><path d="M376.2,171.429a1.2,1.2,0,1,1-1.2-1.143,1.173,1.173,0,0,1,1.2,1.143m4.584,1.552a5.786,5.786,0,0,1-4.154,3.957c-4.56,1.152-8.623-2.718-7.414-7.061a5.786,5.786,0,0,1,4.154-3.957c4.56-1.152,8.623,2.718,7.414,7.061m5.016-2.695h-1.987c-.289,0-.686-.018-.684-.294a5.027,5.027,0,0,0-1.114-3.251c-.2-.2-.139-.387.065-.582l1.405-1.266a1.063,1.063,0,0,0,0-1.581,1.243,1.243,0,0,0-1.7.017l-1.405,1.347a.625.625,0,0,1-.761.067,8.569,8.569,0,0,0-2.93-1.154.579.579,0,0,1-.492-.554v-1.893a1.2,1.2,0,0,0-2.4,0v1.893a.581.581,0,0,1-.492.557,8.571,8.571,0,0,0-2.93,1.155.623.623,0,0,1-.761-.062l-1.405-1.338a1.241,1.241,0,0,0-1.7,0,1.1,1.1,0,0,0,0,1.616l1.405,1.338a.54.54,0,0,1,.065.725,5.725,5.725,0,0,0-1.142,3.077c-.032.273-.366.183-.655.183H364.2a1.144,1.144,0,1,0,0,2.286h1.987c.289,0,.64.1.7.369a6.713,6.713,0,0,0,1.1,2.6.759.759,0,0,1-.065.867l-1.405,1.409a1.146,1.146,0,0,0,0,1.653,1.243,1.243,0,0,0,1.7.017l1.405-1.329a.623.623,0,0,1,.761-.057,8.6,8.6,0,0,0,2.93,1.158.584.584,0,0,1,.492.559v1.893a1.2,1.2,0,0,0,2.4,0v-1.893a.581.581,0,0,1,.492-.557,8.594,8.594,0,0,0,2.93-1.155.623.623,0,0,1,.761.062l1.405,1.338a1.241,1.241,0,0,0,1.7,0,1.1,1.1,0,0,0,0-1.616l-1.405-1.338a.551.551,0,0,1-.065-.725,8.134,8.134,0,0,0,1.213-2.219c.092-.261.3-1.04.584-1.04H385.8a1.144,1.144,0,1,0,0-2.286" transform="translate(-363 -160)" fill="#fff" fill-rule="evenodd"/></svg>