<svg xmlns="http://www.w3.org/2000/svg" width="23.884" height="23.884" viewBox="0 0 23.884 23.884"><g transform="translate(-792.928 -608.928)"><rect width="23.884" height="23.884" transform="translate(792.928 608.928)" fill="#fff"/><path d="M140.012,88.4a13.165,13.165,0,0,0-.208-2.341H129.025v4.427h6.159a5.263,5.263,0,0,1-2.284,3.454v2.872h3.7A11.162,11.162,0,0,0,140.012,88.4Z" transform="translate(675.845 532.727)" fill="#4285f4" fill-rule="evenodd"/><path d="M117.674,104.309a10.925,10.925,0,0,0,7.574-2.773l-3.7-2.871a6.9,6.9,0,0,1-10.279-3.626h-3.823V98A11.439,11.439,0,0,0,117.674,104.309Z" transform="translate(687.195 528.005)" fill="#34a853" fill-rule="evenodd"/><path d="M109.92,86.922a6.769,6.769,0,0,1,0-4.349V79.608H106.1a11.46,11.46,0,0,0,0,10.279Z" transform="translate(688.546 536.122)" fill="#fbbc05" fill-rule="evenodd"/><path d="M117.674,70.857a6.182,6.182,0,0,1,4.375,1.711l3.283-3.282a11,11,0,0,0-7.657-2.981,11.44,11.44,0,0,0-10.227,6.3l3.823,2.965A6.821,6.821,0,0,1,117.674,70.857Z" transform="translate(687.195 543.12)" fill="#ea4335" fill-rule="evenodd"/></g></svg>