<svg xmlns="http://www.w3.org/2000/svg" width="124" height="124.001" viewBox="0 0 124 124.001"><g transform="translate(-6279 1884)"><rect width="124" height="124" transform="translate(6279 -1884)" fill="#f4c545"/><g transform="translate(6268.613 -1904.772)"><path d="M107.053,116.94c-4.666-8.833-34.666-14.376-34.666-14.376s-30,5.543-34.666,14.376c-3.449,12.258-6.334,27.833-6.334,27.833h82S111.438,128.073,107.053,116.94Z" fill="#f1c9a5"/><path d="M72.387,102.564s30,5.543,34.666,14.376c4.386,11.133,6.334,27.833,6.334,27.833h-41Z" fill="#e4b692"/><rect width="16.334" height="27.336" transform="translate(64.22 84.606)" fill="#f1c9a5"/><rect width="8.167" height="27.336" transform="translate(72.387 84.606)" fill="#e4b692"/><path d="M64.22,97.273c1.469,4.217,7.4,6.634,11.751,6.634a14.682,14.682,0,0,0,4.583-.747V84.606H64.22Z" fill="#ddac8c" opacity="0.1"/><path d="M93.387,67.357c0-17.074-9.4-26.783-21-26.783s-21,9.709-21,26.783c0,22.966,9.4,30.917,21,30.917S93.387,89.366,93.387,67.357Z" fill="#f1c9a5"/><path d="M90.19,79.2c-3.807-.4-6.377-4.5-5.732-9.156s4.242-8.12,8.051-7.724,6.371,4.5,5.729,9.156S94,79.591,90.19,79.2Z" fill="#e4b692"/><path d="M46.685,71.474c-.643-4.66,1.924-8.76,5.727-9.156s7.416,3.063,8.055,7.724S58.537,78.8,54.733,79.2,47.323,76.134,46.685,71.474Z" fill="#f1c9a5"/><path d="M93.387,67.357c0-17.074-9.4-26.783-21-26.783v57.7C83.984,98.274,93.387,89.366,93.387,67.357Z" fill="#e4b692"/><path d="M107.053,116.94c-2.726-5.158-14.082-9.191-23.065-11.656l-11.6,13.26-11.6-13.26c-8.983,2.465-20.34,6.5-23.065,11.656-3.449,12.258-6.334,27.833-6.334,27.833h82S111.438,128.073,107.053,116.94Z" fill="#3595bb"/><path d="M54.766,75.53S69.6,65.406,71.347,59.822c-.175,5.061,0,9.6,0,9.6s14.487-14.311,13.09-26c-16.406-8.728-29.147,1.4-32.115,6.108S48.656,67.327,54.766,75.53Z" fill="#262421"/><path d="M82.342,48.127s6.808,8.205,8.2,24.611c4.887-7.157,10.123-27.927-6.109-29.322A33.937,33.937,0,0,0,82.342,48.127Z" fill="#262421"/><path d="M87.385,121.332,78.308,112.9l-5.936,5.648,9.865-14.084a5.524,5.524,0,0,1,4.361,3.86C86.956,113.826,87.385,121.332,87.385,121.332Z" fill="#fff"/><path d="M69.179,144.773h3.208V118.544L69.179,115.5Z" fill="#27aae1"/><path d="M57.359,121.332l9.077-8.437,5.936,5.648-9.865-14.084a5.524,5.524,0,0,0-4.361,3.86C57.788,113.826,57.359,121.332,57.359,121.332Z" fill="#fff"/></g></g></svg>