<svg xmlns="http://www.w3.org/2000/svg" width="124" height="124" viewBox="0 0 124 124"><g transform="translate(-6279 1740)"><rect width="124" height="124" transform="translate(6279 -1740)" fill="#30ace2"/><g transform="translate(-315.858 365.514)"><g transform="translate(6618.889 -2085.928)"><path d="M74.483,28.915s-5.994-6.7-15.611-2.413c-6.719,2.993-8.174,4.953-13.908,6.26-6.054,1.38-10.11,7.4-7.762,14.483,1.953,5.891,3.6,13.646,2.319,16.959-1.69,4.367-.035,7.737,5.751,11.844s15.01,8.127,15.01,8.127L77.068,83s20.624-3.917,19.139-14.472c-1.072-7.614-2.814-8.314,1.041-12.972,2.471-2.986,2.43-12.847-3.356-16.207s-5.161-7.386-8.335-10.186S74.483,28.915,74.483,28.915Z" transform="translate(-29.877 -25.071)" fill="#3c2a20"/><g transform="translate(0 7.916)"><path d="M98.962,113.417c-4.321-8.18-32.1-13.314-32.1-13.314s-27.783,5.133-32.1,13.314c-3.194,11.352-5.865,25.775-5.865,25.775h75.939S103.024,123.726,98.962,113.417Z" transform="translate(-28.889 -42.694)" fill="#f1c9a5"/><path d="M72.5,100.1s27.783,5.133,32.1,13.314c4.062,10.31,5.865,25.775,5.865,25.775H72.5Z" transform="translate(-34.531 -42.694)" fill="#e4b692"/><rect width="15.127" height="25.315" transform="translate(30.406 40.778)" fill="#f1c9a5"/><rect width="7.564" height="25.315" transform="translate(37.969 40.778)" fill="#e4b692"/><path d="M63.813,92.732c1.361,3.9,6.851,6.144,10.883,6.144a13.559,13.559,0,0,0,4.244-.692V81H63.813Z" transform="translate(-33.407 -40.223)" fill="#ddac8c" opacity="0.1"/><path d="M89.059,58.968c0-15.812-8.707-24.8-19.448-24.8s-19.448,8.991-19.448,24.8S58.87,87.6,69.61,87.6,89.059,74.78,89.059,58.968Z" transform="translate(-31.641 -34.164)" fill="#f1c9a5"/><path d="M91.948,58.968c0-15.812-8.707-24.8-19.448-24.8V87.6C83.241,87.6,91.948,74.78,91.948,58.968Z" transform="translate(-34.531 -34.164)" fill="#e4b692"/><path d="M98.962,114.336c-1.45-2.744-5.544-5.144-10.341-7.124a22.42,22.42,0,0,1-43.527,0c-4.8,1.98-8.891,4.379-10.341,7.124-3.194,11.352-5.865,25.775-5.865,25.775h75.939S103.024,124.646,98.962,114.336Z" transform="translate(-28.889 -43.614)" fill="#bf0020"/><g transform="translate(26.414 60.013)"><path d="M59.228,103.094v.03" transform="translate(-59.228 -103.094)" fill="none" stroke="#fff" stroke-linecap="round" stroke-linejoin="round" stroke-width="1.943"/><path d="M59.48,105.551a11.84,11.84,0,0,0,23.4-1.124" transform="translate(-59.261 -103.266)" fill="none" stroke="#fff" stroke-linecap="round" stroke-linejoin="round" stroke-width="1.943" stroke-dasharray="0.065 2.603"/><path d="M86.42,103.124v-.03" transform="translate(-62.746 -103.094)" fill="none" stroke="#fff" stroke-linecap="round" stroke-linejoin="round" stroke-width="1.943"/></g></g><path d="M72.253,34.272c-.347-.347-17.116-4.607-16.216,4.835.695,7.293-4.5,7-7.871,12.45s-3.691,9.1-.409,13.677c.293-3.436.409-8.173,7.7-13.677S62.519,43.39,61.592,39.8,72.253,34.272,72.253,34.272Z" transform="translate(-31.032 -26.099)" fill="#3c2a20"/><path d="M54.436,74.3c-8.5-5.119-7.059-12.928-6.748-16.824.367-4.572,5.022-5.987,10.508-9.279s1.813-4.933,4.007-10.419,14.4-3.531,14.4-3.531-7.164.053-9.357,5.538.915,7.131-4.572,10.423-8.3,3.282-9.6,7.681C51.725,62.462,48.064,65.885,54.436,74.3Z" transform="translate(-31.284 -26.214)" fill="#564036"/><path d="M45.178,67.627c-8.5-5.118-5.432-10.366-5.121-14.263.367-4.572,3.363-5.47,8.85-8.761s3.127-3.856,5.322-9.341,14.354-1.829,14.354-1.829-7.68-1.646-9.875,3.84.332,6.314-4.572,10.423c-3.476,2.914-9.855,3.1-9.6,7.681C44.858,61.11,38.412,62.507,45.178,67.627Z" transform="translate(-30.231 -25.999)" fill="#564036"/><path d="M69.944,33.74c.347-.347,17.117-4.607,16.217,4.836-.695,7.293,4.5,7,7.871,12.45s3.691,9.1.408,13.676c-.293-3.436-.408-8.173-7.7-13.676S79.679,42.859,80.6,39.271,69.944,33.74,69.944,33.74Z" transform="translate(-34.2 -26.03)" fill="#3c2a20"/><path d="M88.124,72.848c8.5-5.576,5.432-11.294,5.121-15.54-.367-4.981-3.056-5.014-8.543-8.6S82.38,43.577,80.186,37.6s-14.951-3.858-14.951-3.858,7.163.057,9.357,6.034-.915,7.771,4.572,11.356,9.234,3.389,9.6,8.369C89.076,63.748,94.891,67.269,88.124,72.848Z" transform="translate(-33.591 -26.146)" fill="#564036"/><path d="M96.907,71.031c8.6-5.689,5.493-11.519,5.178-15.849-.37-5.08-3.4-6.079-8.949-9.736s-3.161-4.285-5.381-10.381-14.516-2.032-14.516-2.032S81,31.2,83.223,37.3s-.335,7.016,4.623,11.583c3.515,3.237,9.966,3.447,9.708,8.535C97.231,63.791,103.749,65.34,96.907,71.031Z" transform="translate(-34.626 -25.93)" fill="#564036"/><path d="M90.664,107.212s-8.049,3.282-6.8,11.3c-4.311-.313-13.571.663-14.961,5.731-3.241-4.5-10.825-6.931-15.368-6.1-.066-4.573-3.038-9.264-6.4-10.933a24.738,24.738,0,0,0-1.781,16.507s10.579,8.914,11.158,8.914,22.341,3.82,22.341,3.82,14.53-4.747,14.616-5.209S90.664,107.212,90.664,107.212Z" transform="translate(-30.931 -35.697)" fill="#bf0020"/><path d="M87.993,45.6s1.56,7.128,8.738,14.007c3.066,2.94.695,15.744-5.9,22.111,5.672-4.63,13.961-14.281,10.3-22.111S89.645,49.091,87.993,45.6Z" transform="translate(-36.535 -27.727)" fill="#564036"/><path d="M57.852,45.016A34.886,34.886,0,0,1,48.7,61.033c-3.066,2.94-3.835,11.779,2.763,18.146-5.673-4.63-10.82-10.316-7.163-18.146S56.2,48.51,57.852,45.016Z" transform="translate(-30.724 -27.652)" fill="#564036"/></g></g></g></svg>